<?xml version="1.0" standalone="no"?>
<!DOCTYPE svg PUBLIC "-//W3C//DTD SVG 20010904//EN"
 "http://www.w3.org/TR/2001/REC-SVG-20010904/DTD/svg10.dtd">
<svg version="1.0" xmlns="http://www.w3.org/2000/svg"
 width="1439.000000pt" height="1439.000000pt" viewBox="0 0 1439.000000 1439.000000"
 preserveAspectRatio="xMidYMid meet">
<metadata>
Created by potrace 1.11, written by Peter Selinger 2001-2013
</metadata>
<g transform="translate(0.000000,1439.000000) scale(0.100000,-0.100000)"
fill="#000000" stroke="none">
<path d="M7035 10441 c-317 -78 -311 -278 10 -348 90 -20 280 -20 362 0 67 16
61 17 318 -58 103 -31 651 -186 669 -190 10 -3 44 -12 75 -21 31 -9 70 -20 86
-24 17 -5 95 -27 175 -50 80 -23 152 -43 160 -45 8 -2 38 -10 65 -19 69 -21
406 -117 523 -147 24 -7 40 -15 35 -19 -4 -4 -179 -64 -388 -134 -209 -69
-727 -242 -1150 -384 l-770 -257 -440 146 c-535 178 -4125 1369 -4143 1375 -8
2 -260 -69 -560 -157 -301 -89 -563 -166 -582 -171 -19 -5 -138 -40 -265 -78
-126 -37 -239 -70 -250 -73 -11 -3 -166 -48 -345 -102 -179 -53 -332 -98 -340
-100 -8 -2 -46 -13 -85 -25 -38 -12 -74 -22 -80 -24 -62 -17 -95 -28 -99 -34
-3 -5 2699 -919 2774 -937 8 -2 312 -104 675 -226 363 -122 1350 -453 2193
-735 l1533 -514 762 256 c419 140 769 257 777 259 8 2 524 175 1145 383 2499
839 2306 776 2348 768 28 -5 40 -14 47 -32 6 -16 10 -655 10 -1685 l0 -1659
-57 -59 c-76 -78 -130 -183 -173 -336 -29 -104 -40 -165 -55 -322 -20 -199
-99 -403 -194 -501 -53 -55 -56 -47 33 -96 l49 -27 34 33 c72 68 173 246 173
303 0 13 4 26 9 29 4 3 7 -5 5 -17 -22 -148 -47 -291 -59 -331 -21 -70 -20
-73 33 -85 26 -6 58 -14 72 -18 14 -3 96 -8 183 -10 l159 -5 -4 151 c-1 83 -2
151 -2 151 1 0 19 -61 39 -136 21 -75 44 -138 51 -141 17 -6 125 28 198 63
l55 26 -29 81 c-16 44 -28 82 -26 84 1 2 28 -24 59 -57 31 -33 59 -60 63 -60
3 0 28 23 56 51 47 48 49 51 33 72 -88 121 -141 218 -185 344 -38 107 -38 128
0 41 52 -120 147 -247 228 -303 19 -14 21 -13 32 19 21 66 20 75 -11 99 -80
58 -144 179 -209 392 -77 252 -118 345 -188 435 -39 49 -113 112 -155 131 -24
11 -27 17 -27 68 -1 31 -2 810 -3 1732 l-2 1676 690 231 c1173 393 1236 414
1232 418 -2 3 -13 6 -23 9 -16 3 -136 38 -664 195 -36 10 -110 32 -165 49 -55
16 -341 100 -635 186 -294 86 -555 163 -580 171 -160 49 -499 147 -522 151
-18 3 -352 -105 -971 -312 l-943 -315 -85 24 c-111 32 -730 207 -749 212 -8 2
-40 10 -70 19 -30 9 -77 23 -105 30 -27 7 -115 32 -195 55 -80 23 -215 61
-300 85 -85 24 -227 64 -315 89 -88 25 -194 55 -235 66 -188 53 -179 49 -199
89 -48 92 -209 150 -419 149 -66 0 -134 -7 -177 -17z"/>
<path d="M3365 6773 c7 -1739 6 -1683 34 -1756 13 -32 36 -74 53 -93 30 -34
153 -102 164 -91 6 6 6 177 -1 815 l-4 354 52 -7 c29 -3 68 -8 87 -10 60 -7
204 -26 230 -30 14 -2 43 -7 65 -9 22 -3 78 -13 125 -21 47 -9 108 -20 135
-25 71 -12 200 -39 270 -56 33 -8 71 -17 85 -20 204 -43 647 -186 897 -290
168 -70 398 -179 504 -240 35 -20 84 -48 109 -62 66 -37 264 -166 345 -225
223 -163 496 -419 605 -569 57 -79 82 -92 102 -53 20 37 152 189 248 285 358
356 886 685 1445 900 61 23 119 46 130 50 147 61 636 202 815 236 14 2 57 11
95 20 80 17 83 17 230 43 117 21 142 25 218 36 27 4 56 8 65 9 10 2 44 7 77
10 33 4 71 9 85 11 14 2 51 6 82 10 l58 6 -5 -586 -5 -586 23 7 c128 39 204
134 221 274 5 37 12 1141 18 2823 1 103 -1 189 -4 192 -3 3 -52 -11 -109 -31
-57 -20 -108 -37 -114 -38 -5 -1 -161 -53 -347 -114 -185 -62 -344 -115 -355
-117 -10 -2 -56 -17 -103 -33 -72 -26 -1466 -487 -2476 -820 -165 -55 -313
-99 -330 -98 -16 1 -285 87 -599 191 -313 104 -572 189 -575 190 -3 1 -383
126 -845 279 -1232 409 -1799 596 -1802 596 -2 0 -1 -611 2 -1357z"/>
</g>
</svg>
